# xmcd CD database file
#
# Track frame offsets:
#	150
#	17462
#	33580
#	50330
#	70012
#	89207
#	102542
#	123140
#	139407
#
# Disc length: 2235 seconds
#
# Revision: 1
# Processed by: cddbd v1.5.2PL0 Copyright (c) Steve Scherf et al.
# Submitted via: jetAudio 7
#
DISCID=7b08b909
DTITLE=Lemonpeeler - the first time
DYEAR=2001
DGENRE=Alternative
TTITLE0=automatic
TTITLE1=the first time
TTITLE2=around
TTITLE3=annabelle´s design
TTITLE4=limit on you
TTITLE5=northbound train
TTITLE6=two sisters
TTITLE7=take me back
TTITLE8=Caroline´s gone
EXTD=
EXTT0=
EXTT1=
EXTT2=
EXTT3=
EXTT4=
EXTT5=
EXTT6=
EXTT7=
EXTT8=
PLAYORDER=
